<svg xmlns="http://www.w3.org/2000/svg" id="mainsvg" width="1419.4640625000002" height="377.95000000000005" viewBox="-10 -10 1290.421875 344.5"><defs><marker id="arrow" viewBox="0 0 10 10" refX="10" refY="5" markerWidth="5" markerHeight="5" orient="auto-start-reverse" fill="black"><path stroke="black" d="M 0 0 L 10 5 L 0 10 z"/></marker><marker id="Many" viewBox="0 0 16 16" refX="15" refY="8" markerWidth="15" markerHeight="15" orient="auto-start-reverse"><path stroke="black" d="M0 8H15M15 15L2 8L15 1" fill="none"/></marker><marker id="ZeroOrOne" viewBox="0 0 16 10" refX="15" refY="5" markerWidth="21" markerHeight="21" orient="auto-start-reverse"><path d="M9 5H16" stroke="black" fill="none"/><circle cx="5" cy="5" r="4.5" stroke="black" fill="#fff"/><path d="M12 0L12 10" stroke="black" fill="none"/></marker><marker id="OneOnlyOne" viewBox="0 0 10 14" refX="10" refY="7" markerWidth="13" markerHeight="13" orient="auto-start-reverse"><path d="M0 7H4M4 7H7M4 7V0M4 7V14M7 7H10M7 7V0M7 7V14" stroke="black" fill="none"/></marker><marker id="OneOrMany" viewBox="0 0 16 16" refX="15" refY="8" markerWidth="15" markerHeight="15" orient="auto-start-reverse"><path stroke="black" d="M2 1V15M2 8L15 15M2 8L15 1M2 8H0M2 8H15" fill="none"/></marker><marker id="ZeroOrMany" viewBox="0 0 25 16" refX="23" refY="8" markerWidth="25" markerHeight="25" orient="auto-start-reverse"><path d="M13 8H27M27 15L14 8L27 1" stroke="black" fill="none"/><path d="M13.5 7.5C13.5 10.7795 10.6254 13.5 7 13.5C3.37461 13.5 0.5 10.7795 0.5 7.5C0.5 4.22054 3.37461 1.5 7 1.5C10.6254 1.5 13.5 4.22054 13.5 7.5Z" stroke="black" fill="#fff"/></marker><marker id="aggregation" viewBox="0 0 10 6" refX="9.3" refY="2.8" markerWidth="23" markerHeight="15" orient="auto-start-reverse"><path stroke="black" fill="#fff" stroke-width="0.7" d="M1.01614 2.82609L5 0.574341L8.98386 2.82609L5 5.07783L1.01614 2.82609Z"/></marker><marker id="composition" viewBox="0 0 10 6" refX="9.7" refY="2.8" markerWidth="18" markerHeight="15" orient="auto-start-reverse"><path stroke="black" fill="black" d="M1.01614 2.82609L5 0.574341L8.98386 2.82609L5 5.07783L1.01614 2.82609Z"/></marker><marker id="implementation" viewBox="0 0 8 10" refX="8" refY="5" markerWidth="20" markerHeight="20" orient="auto-start-reverse"><path stroke="black" fill="#fff" stroke-width="0.7" d="M0.750001 1.10289L7.5 5L0.750001 8.89712L0.750001 1.10289Z"/></marker><marker id="dependency" viewBox="0 0 12 12" refX="11" refY="6" markerWidth="12" markerHeight="11" orient="auto-start-reverse"><path stroke="black" fill="#fff" d="M1 5.93162H10.886M10.886 5.93162L1 0.5M10.886 5.93162L1 11"/></marker><marker id="inheritance" viewBox="0 0 8 10" refX="8" refY="5" markerWidth="20" markerHeight="20" orient="auto-start-reverse"><path stroke="black" fill="#fff" stroke-width="0.7" d="M0.750001 1.10289L7.5 5L0.750001 8.89712L0.750001 1.10289Z"/></marker><marker id="association" viewBox="0 0 12 12" refX="11" refY="6" markerWidth="12" markerHeight="11" orient="auto-start-reverse"><path stroke="black" d="M1 5.93162H10.886M10.886 5.93162L1 0.5M10.886 5.93162L1 11"/></marker><filter id="shadowOLD" x="-50%" y="-50%" width="250%" height="250%"><feDropShadow flood-color="black" flood-opacity="0.3" dx="1" dy="1" stdDeviation="2"> </feDropShadow></filter><filter id="shadow-path" filterUnits="userSpaceOnUse" x="-10" y="-10" width="1290.421875px" height="334.5px"><feDropShadow flood-color="black" flood-opacity="0.1" dx="1" dy="1" stdDeviation="1"> </feDropShadow></filter><filter id="shadow" filterUnits="userSpaceOnUse" x="-10" y="-10" width="1390.421875px" height="434.5px"><feDropShadow flood-color="black" flood-opacity="0.1" dx="1" dy="1" stdDeviation="1"> </feDropShadow></filter></defs><rect x="-10" y="-10" width="1290.421875" height="334.5" fill="#fff"/><g><path transform="rotate(0,0, 0) scale(1)" d="M204,80L254,80L254,80L275,80L275,80L304,80" stroke="black" stroke-dasharray="6" stroke-width="1.3" fill="none" marker-end="url(#dependency)"/><text x="214" y="70" font-size="smaller" fill="black"/><text x="284" y="70" font-size="smaller" fill="black"/></g><g><path transform="rotate(0,0, 0) scale(1)" d="M324,158L324,187L642,187L642,179L663,179L663,179L692,179" stroke="black" stroke-dasharray="6" stroke-width="1.3" fill="none" marker-end="url(#dependency)"/><text x="334" y="168" font-size="smaller" fill="black"/><text x="672" y="169" font-size="smaller" fill="black"/></g><g><path transform="rotate(0,0, 0) scale(1)" d="M592,85L642,85L642,85L848,85L848,85L1054,85L1054,85L1075,85L1075,85L1104,85" stroke="black" stroke-dasharray="none" stroke-width="1.3" fill="none" marker-end="url(#association)"/><text x="602" y="75" font-size="smaller" fill="black"/><text x="1084" y="75" font-size="smaller" fill="black"/></g><g><path transform="rotate(0,0, 0) scale(1)" d="M1004,184L1054,184L1054,184L1124,184L1124,161" stroke="black" stroke-dasharray="none" stroke-width="1.3" fill="none" marker-end="url(#association)"/><text x="1014" y="174" font-size="smaller" fill="black"/><text x="1134" y="171" font-size="smaller" fill="black"/></g><g transform="translate(304.7265625, 3)"><g transform="translate(0, 0)"><rect width="287.546875" height="155" stroke="black" fill="white" stroke-width="1" transform="translate(0, 0)" rx="0"/><g transform="translate(0, 0)"><g transform="translate(0, 0)"><rect width="287.546875" height="38" stroke="black" fill="white" stroke-width="1" transform="translate(0, 0)" rx="0"/><text fill="black" font-size="16" font-weight="bold" transform="translate(98.4140625, 10)" alignment-baseline="middle" font-family="Arial"><tspan x="0" dy="16" font-family="Arial" font-size="16" font-weight="bold">PeepService</tspan></text></g><g transform="translate(0, 38)"><rect width="2" height="3" stroke="none" fill="none" stroke-width="1.3" transform="translate(0, 0)" rx="2"/></g><g transform="translate(0, 41)"><g transform="translate(0, 0)"><rect width="287.546875" height="24" stroke="none" fill="none" stroke-width="1.3" transform="translate(0, 0)" rx="0"/><g transform="translate(0, 0)"><rect width="15" height="15" stroke="none" fill="none" stroke-width="1.3" transform="translate(0, 4.5)" rx="2"/><g transform="translate(15, 10)"><path transform="rotate(0,0, 0) scale(1)" d="M4 5H11" stroke="black" stroke-dasharray="none" stroke-width="1.3" fill="none"/></g><rect width="2" height="20" stroke="none" fill="none" stroke-width="1.3" transform="translate(25, 2)" rx="2"/><g transform="translate(27, 0)"><g transform="translate(0, 0)"><rect width="120.7421875" height="24" stroke="none" fill="none" stroke-width="0" transform="translate(0, 0)" rx="0"/><text fill="black" font-size="16" font-weight="normal" transform="translate(3, 3)" alignment-baseline="middle" font-family="Arial"><tspan x="0" dy="16" font-family="Arial" font-size="16" font-weight="normal">peep_repository</tspan></text></g></g></g></g></g><g transform="translate(0, 65)"><path d="M 0,7 L 287.546875 7" fill="none" stroke="black" stroke-dasharray="none" stroke-width="1"/><rect width="10" height="10" stroke="none" fill="none" stroke-width="1.3" transform="translate(0, 0)" rx="2"/></g><g transform="translate(0, 75)"><g transform="translate(0, 0)"><rect width="100" height="24" stroke="none" fill="none" stroke-width="1.3" transform="translate(0, 0)" rx="0"/><g transform="translate(0, 0)"><rect width="15" height="15" stroke="none" fill="none" stroke-width="1.3" transform="translate(0, 4.5)" rx="2"/><g transform="translate(15, 8)"><path transform="rotate(0,0, 0) scale(1)" d="M4 5H11M7.5 1V9" stroke="black" stroke-dasharray="none" stroke-width="1.3" fill="none"/></g><rect width="5" height="20" stroke="none" fill="none" stroke-width="1.3" transform="translate(22, 2)" rx="2"/><g transform="translate(27, 0)"><g transform="translate(0, 0)"><rect width="126.96875" height="24" stroke="none" fill="none" stroke-width="0" transform="translate(0, 0)" rx="0"/><text fill="black" font-size="16" font-weight="normal" transform="translate(3, 3)" alignment-baseline="middle" font-family="Arial"><tspan x="0" dy="16" font-family="Arial" font-size="16" font-weight="normal">add_peep(string)</tspan></text></g></g></g></g><g transform="translate(0, 24)"><rect width="100" height="24" stroke="none" fill="none" stroke-width="1.3" transform="translate(0, 0)" rx="0"/><g transform="translate(0, 0)"><rect width="15" height="15" stroke="none" fill="none" stroke-width="1.3" transform="translate(0, 4.5)" rx="2"/><g transform="translate(15, 8)"><path transform="rotate(0,0, 0) scale(1)" d="M4 5H11M7.5 1V9" stroke="black" stroke-dasharray="none" stroke-width="1.3" fill="none"/></g><rect width="5" height="20" stroke="none" fill="none" stroke-width="1.3" transform="translate(22, 2)" rx="2"/><g transform="translate(27, 0)"><g transform="translate(0, 0)"><rect width="109.1953125" height="24" stroke="none" fill="none" stroke-width="0" transform="translate(0, 0)" rx="0"/><text fill="black" font-size="16" font-weight="normal" transform="translate(3, 3)" alignment-baseline="middle" font-family="Arial"><tspan x="0" dy="16" font-family="Arial" font-size="16" font-weight="normal">find_all_peeps</tspan></text></g></g></g></g><g transform="translate(0, 48)"><rect width="100" height="24" stroke="none" fill="none" stroke-width="1.3" transform="translate(0, 0)" rx="0"/><g transform="translate(0, 0)"><rect width="15" height="15" stroke="none" fill="none" stroke-width="1.3" transform="translate(0, 4.5)" rx="2"/><g transform="translate(15, 8)"><path transform="rotate(0,0, 0) scale(1)" d="M4 5H11M7.5 1V9" stroke="black" stroke-dasharray="none" stroke-width="1.3" fill="none"/></g><rect width="5" height="20" stroke="none" fill="none" stroke-width="1.3" transform="translate(22, 2)" rx="2"/><g transform="translate(27, 0)"><g transform="translate(0, 0)"><rect width="210.546875" height="24" stroke="none" fill="none" stroke-width="0" transform="translate(0, 0)" rx="0"/><text fill="black" font-size="16" font-weight="normal" transform="translate(3, 3)" alignment-baseline="middle" font-family="Arial"><tspan x="0" dy="16" font-family="Arial" font-size="16" font-weight="normal">find_peeps_with_filter(string)</tspan></text></g></g></g></g></g><g transform="translate(0, 147)"><rect width="8" height="8" stroke="none" fill="none" stroke-width="1.3" transform="translate(0, 0)" rx="2"/></g></g></g></g><g transform="translate(0, 3)"><g transform="translate(0, 0)"><rect width="204.7265625" height="155" stroke="black" fill="white" stroke-width="1" transform="translate(0, 0)" rx="0"/><g transform="translate(0, 0)"><g transform="translate(0, 0)"><rect width="204.7265625" height="38" stroke="black" fill="white" stroke-width="1" transform="translate(0, 0)" rx="0"/><text fill="black" font-size="16" font-weight="bold" transform="translate(67.68359375, 10)" alignment-baseline="middle" font-family="Arial"><tspan x="0" dy="16" font-family="Arial" font-size="16" font-weight="bold">Controller</tspan></text></g><g transform="translate(0, 38)"><rect width="2" height="3" stroke="none" fill="none" stroke-width="1.3" transform="translate(0, 0)" rx="2"/></g><g transform="translate(0, 41)"><g transform="translate(0, 0)"><rect width="204.7265625" height="24" stroke="none" fill="none" stroke-width="1.3" transform="translate(0, 0)" rx="0"/><g transform="translate(0, 0)"><rect width="15" height="15" stroke="none" fill="none" stroke-width="1.3" transform="translate(0, 4.5)" rx="2"/><g transform="translate(15, 10)"><path transform="rotate(0,0, 0) scale(1)" d="M4 5H11" stroke="black" stroke-dasharray="none" stroke-width="1.3" fill="none"/></g><rect width="2" height="20" stroke="none" fill="none" stroke-width="1.3" transform="translate(25, 2)" rx="2"/><g transform="translate(27, 0)"><g transform="translate(0, 0)"><rect width="96.71875" height="24" stroke="none" fill="none" stroke-width="0" transform="translate(0, 0)" rx="0"/><text fill="black" font-size="16" font-weight="normal" transform="translate(3, 3)" alignment-baseline="middle" font-family="Arial"><tspan x="0" dy="16" font-family="Arial" font-size="16" font-weight="normal">PeepService</tspan></text></g></g></g></g></g><g transform="translate(0, 65)"><path d="M 0,7 L 204.7265625 7" fill="none" stroke="black" stroke-dasharray="none" stroke-width="1"/><rect width="10" height="10" stroke="none" fill="none" stroke-width="1.3" transform="translate(0, 0)" rx="2"/></g><g transform="translate(0, 75)"><g transform="translate(0, 0)"><rect width="100" height="24" stroke="none" fill="none" stroke-width="1.3" transform="translate(0, 0)" rx="0"/><g transform="translate(0, 0)"><rect width="15" height="15" stroke="none" fill="none" stroke-width="1.3" transform="translate(0, 4.5)" rx="2"/><g transform="translate(15, 8)"><path transform="rotate(0,0, 0) scale(1)" d="M4 5H11M7.5 1V9" stroke="black" stroke-dasharray="none" stroke-width="1.3" fill="none"/></g><rect width="5" height="20" stroke="none" fill="none" stroke-width="1.3" transform="translate(22, 2)" rx="2"/><g transform="translate(27, 0)"><g transform="translate(0, 0)"><rect width="53.8984375" height="24" stroke="none" fill="none" stroke-width="0" transform="translate(0, 0)" rx="0"/><text fill="black" font-size="16" font-weight="normal" transform="translate(3, 3)" alignment-baseline="middle" font-family="Arial"><tspan x="0" dy="16" font-family="Arial" font-size="16" font-weight="normal">get ('/')</tspan></text></g></g></g></g><g transform="translate(0, 24)"><rect width="100" height="24" stroke="none" fill="none" stroke-width="1.3" transform="translate(0, 0)" rx="0"/><g transform="translate(0, 0)"><rect width="15" height="15" stroke="none" fill="none" stroke-width="1.3" transform="translate(0, 4.5)" rx="2"/><g transform="translate(15, 8)"><path transform="rotate(0,0, 0) scale(1)" d="M4 5H11M7.5 1V9" stroke="black" stroke-dasharray="none" stroke-width="1.3" fill="none"/></g><rect width="5" height="20" stroke="none" fill="none" stroke-width="1.3" transform="translate(22, 2)" rx="2"/><g transform="translate(27, 0)"><g transform="translate(0, 0)"><rect width="124.171875" height="24" stroke="none" fill="none" stroke-width="0" transform="translate(0, 0)" rx="0"/><text fill="black" font-size="16" font-weight="normal" transform="translate(3, 3)" alignment-baseline="middle" font-family="Arial"><tspan x="0" dy="16" font-family="Arial" font-size="16" font-weight="normal">get ('/new-peep')</tspan></text></g></g></g></g><g transform="translate(0, 48)"><rect width="100" height="24" stroke="none" fill="none" stroke-width="1.3" transform="translate(0, 0)" rx="0"/><g transform="translate(0, 0)"><rect width="15" height="15" stroke="none" fill="none" stroke-width="1.3" transform="translate(0, 4.5)" rx="2"/><g transform="translate(15, 8)"><path transform="rotate(0,0, 0) scale(1)" d="M4 5H11M7.5 1V9" stroke="black" stroke-dasharray="none" stroke-width="1.3" fill="none"/></g><rect width="5" height="20" stroke="none" fill="none" stroke-width="1.3" transform="translate(22, 2)" rx="2"/><g transform="translate(27, 0)"><g transform="translate(0, 0)"><rect width="127.7265625" height="24" stroke="none" fill="none" stroke-width="0" transform="translate(0, 0)" rx="0"/><text fill="black" font-size="16" font-weight="normal" transform="translate(3, 3)" alignment-baseline="middle" font-family="Arial"><tspan x="0" dy="16" font-family="Arial" font-size="16" font-weight="normal">post('/new-peep')</tspan></text></g></g></g></g></g><g transform="translate(0, 147)"><rect width="8" height="8" stroke="none" fill="none" stroke-width="1.3" transform="translate(0, 0)" rx="2"/></g></g></g></g><g transform="translate(692.2734375, 159.5)"><g transform="translate(0, 0)"><rect width="312.453125" height="155" stroke="black" fill="white" stroke-width="1" transform="translate(0, 0)" rx="0"/><g transform="translate(0, 0)"><g transform="translate(0, 0)"><rect width="312.453125" height="38" stroke="black" fill="white" stroke-width="1" transform="translate(0, 0)" rx="0"/><text fill="black" font-size="16" font-weight="bold" transform="translate(99.3046875, 10)" alignment-baseline="middle" font-family="Arial"><tspan x="0" dy="16" font-family="Arial" font-size="16" font-weight="bold">PeepRepository</tspan></text></g><g transform="translate(0, 38)"><rect width="2" height="3" stroke="none" fill="none" stroke-width="1.3" transform="translate(0, 0)" rx="2"/></g><g transform="translate(0, 41)"><g transform="translate(0, 0)"><rect width="312.453125" height="24" stroke="none" fill="none" stroke-width="1.3" transform="translate(0, 0)" rx="0"/><g transform="translate(0, 0)"><rect width="15" height="15" stroke="none" fill="none" stroke-width="1.3" transform="translate(0, 4.5)" rx="2"/><g transform="translate(15, 10)"><path transform="rotate(0,0, 0) scale(1)" d="M4 5H11" stroke="black" stroke-dasharray="none" stroke-width="1.3" fill="none"/></g><rect width="2" height="20" stroke="none" fill="none" stroke-width="1.3" transform="translate(25, 2)" rx="2"/><g transform="translate(27, 0)"><g transform="translate(0, 0)"><rect width="10.4453125" height="24" stroke="none" fill="none" stroke-width="0" transform="translate(0, 0)" rx="0"/><text fill="black" font-size="16" font-weight="normal" transform="translate(3, 3)" alignment-baseline="middle" font-family="Arial"><tspan x="0" dy="16" font-family="Arial" font-size="16" font-weight="normal"> </tspan></text></g></g></g></g></g><g transform="translate(0, 65)"><path d="M 0,7 L 312.453125 7" fill="none" stroke="black" stroke-dasharray="none" stroke-width="1"/><rect width="10" height="10" stroke="none" fill="none" stroke-width="1.3" transform="translate(0, 0)" rx="2"/></g><g transform="translate(0, 75)"><g transform="translate(0, 0)"><rect width="100" height="24" stroke="none" fill="none" stroke-width="1.3" transform="translate(0, 0)" rx="0"/><g transform="translate(0, 0)"><rect width="15" height="15" stroke="none" fill="none" stroke-width="1.3" transform="translate(0, 4.5)" rx="2"/><g transform="translate(15, 8)"><path transform="rotate(0,0, 0) scale(1)" d="M4 5H11M7.5 1V9" stroke="black" stroke-dasharray="none" stroke-width="1.3" fill="none"/></g><rect width="5" height="20" stroke="none" fill="none" stroke-width="1.3" transform="translate(22, 2)" rx="2"/><g transform="translate(27, 0)"><g transform="translate(0, 0)"><rect width="77.1875" height="24" stroke="none" fill="none" stroke-width="0" transform="translate(0, 0)" rx="0"/><text fill="black" font-size="16" font-weight="normal" transform="translate(3, 3)" alignment-baseline="middle" font-family="Arial"><tspan x="0" dy="16" font-family="Arial" font-size="16" font-weight="normal">add_peep</tspan></text></g></g></g></g><g transform="translate(0, 24)"><rect width="100" height="24" stroke="none" fill="none" stroke-width="1.3" transform="translate(0, 0)" rx="0"/><g transform="translate(0, 0)"><rect width="15" height="15" stroke="none" fill="none" stroke-width="1.3" transform="translate(0, 4.5)" rx="2"/><g transform="translate(15, 8)"><path transform="rotate(0,0, 0) scale(1)" d="M4 5H11M7.5 1V9" stroke="black" stroke-dasharray="none" stroke-width="1.3" fill="none"/></g><rect width="5" height="20" stroke="none" fill="none" stroke-width="1.3" transform="translate(22, 2)" rx="2"/><g transform="translate(27, 0)"><g transform="translate(0, 0)"><rect width="109.1953125" height="24" stroke="none" fill="none" stroke-width="0" transform="translate(0, 0)" rx="0"/><text fill="black" font-size="16" font-weight="normal" transform="translate(3, 3)" alignment-baseline="middle" font-family="Arial"><tspan x="0" dy="16" font-family="Arial" font-size="16" font-weight="normal">find_all_peeps</tspan></text></g></g></g></g><g transform="translate(0, 48)"><rect width="100" height="24" stroke="none" fill="none" stroke-width="1.3" transform="translate(0, 0)" rx="0"/><g transform="translate(0, 0)"><rect width="15" height="15" stroke="none" fill="none" stroke-width="1.3" transform="translate(0, 4.5)" rx="2"/><g transform="translate(15, 8)"><path transform="rotate(0,0, 0) scale(1)" d="M4 5H11M7.5 1V9" stroke="black" stroke-dasharray="none" stroke-width="1.3" fill="none"/></g><rect width="5" height="20" stroke="none" fill="none" stroke-width="1.3" transform="translate(22, 2)" rx="2"/><g transform="translate(27, 0)"><g transform="translate(0, 0)"><rect width="235.453125" height="24" stroke="none" fill="none" stroke-width="0" transform="translate(0, 0)" rx="0"/><text fill="black" font-size="16" font-weight="normal" transform="translate(3, 3)" alignment-baseline="middle" font-family="Arial"><tspan x="0" dy="16" font-family="Arial" font-size="16" font-weight="normal">find_all_peeps_with_filter(string)</tspan></text></g></g></g></g></g><g transform="translate(0, 147)"><rect width="8" height="8" stroke="none" fill="none" stroke-width="1.3" transform="translate(0, 0)" rx="2"/></g></g></g></g><g transform="translate(1104.7265625, 0)"><g transform="translate(0, 0)"><rect width="165.6953125" height="161" stroke="black" fill="white" stroke-width="1" transform="translate(0, 0)" rx="0"/><g transform="translate(0, 0)"><g transform="translate(0, 0)"><rect width="165.6953125" height="38" stroke="black" fill="white" stroke-width="1" transform="translate(0, 0)" rx="0"/><text fill="black" font-size="16" font-weight="bold" transform="translate(64.1640625, 10)" alignment-baseline="middle" font-family="Arial"><tspan x="0" dy="16" font-family="Arial" font-size="16" font-weight="bold">Peep</tspan></text></g><g transform="translate(0, 38)"><rect width="2" height="3" stroke="none" fill="none" stroke-width="1.3" transform="translate(0, 0)" rx="2"/></g><g transform="translate(0, 41)"><g transform="translate(0, 0)"><rect width="165.6953125" height="24" stroke="none" fill="none" stroke-width="1.3" transform="translate(0, 0)" rx="0"/><g transform="translate(0, 0)"><rect width="15" height="15" stroke="none" fill="none" stroke-width="1.3" transform="translate(0, 4.5)" rx="2"/><g transform="translate(15, 10)"><path transform="rotate(0,0, 0) scale(1)" d="M4 5H11" stroke="black" stroke-dasharray="none" stroke-width="1.3" fill="none"/></g><rect width="2" height="20" stroke="none" fill="none" stroke-width="1.3" transform="translate(25, 2)" rx="2"/><g transform="translate(27, 0)"><g transform="translate(0, 0)"><rect width="18.453125" height="24" stroke="none" fill="none" stroke-width="0" transform="translate(0, 0)" rx="0"/><text fill="black" font-size="16" font-weight="normal" transform="translate(3, 3)" alignment-baseline="middle" font-family="Arial"><tspan x="0" dy="16" font-family="Arial" font-size="16" font-weight="normal">id</tspan></text></g></g></g></g><g transform="translate(0, 24)"><rect width="165.6953125" height="24" stroke="none" fill="none" stroke-width="1.3" transform="translate(0, 0)" rx="0"/><g transform="translate(0, 0)"><rect width="15" height="15" stroke="none" fill="none" stroke-width="1.3" transform="translate(0, 4.5)" rx="2"/><g transform="translate(15, 10)"><path transform="rotate(0,0, 0) scale(1)" d="M4 5H11" stroke="black" stroke-dasharray="none" stroke-width="1.3" fill="none"/></g><rect width="2" height="20" stroke="none" fill="none" stroke-width="1.3" transform="translate(25, 2)" rx="2"/><g transform="translate(27, 0)"><g transform="translate(0, 0)"><rect width="58.484375" height="24" stroke="none" fill="none" stroke-width="0" transform="translate(0, 0)" rx="0"/><text fill="black" font-size="16" font-weight="normal" transform="translate(3, 3)" alignment-baseline="middle" font-family="Arial"><tspan x="0" dy="16" font-family="Arial" font-size="16" font-weight="normal">content</tspan></text></g></g></g></g><g transform="translate(0, 48)"><rect width="165.6953125" height="24" stroke="none" fill="none" stroke-width="1.3" transform="translate(0, 0)" rx="0"/><g transform="translate(0, 0)"><rect width="15" height="15" stroke="none" fill="none" stroke-width="1.3" transform="translate(0, 4.5)" rx="2"/><g transform="translate(15, 10)"><path transform="rotate(0,0, 0) scale(1)" d="M4 5H11" stroke="black" stroke-dasharray="none" stroke-width="1.3" fill="none"/></g><rect width="2" height="20" stroke="none" fill="none" stroke-width="1.3" transform="translate(25, 2)" rx="2"/><g transform="translate(27, 0)"><g transform="translate(0, 0)"><rect width="88.6953125" height="24" stroke="none" fill="none" stroke-width="0" transform="translate(0, 0)" rx="0"/><text fill="black" font-size="16" font-weight="normal" transform="translate(3, 3)" alignment-baseline="middle" font-family="Arial"><tspan x="0" dy="16" font-family="Arial" font-size="16" font-weight="normal">time_stamp</tspan></text></g></g></g></g></g><g transform="translate(0, 113)"><path d="M 0,7 L 165.6953125 7" fill="none" stroke="black" stroke-dasharray="none" stroke-width="1"/><rect width="10" height="10" stroke="none" fill="none" stroke-width="1.3" transform="translate(0, 0)" rx="2"/></g><g transform="translate(0, 123)"><rect width="30" height="30" stroke="none" fill="none" stroke-width="1.3" transform="translate(0, 0)" rx="2"/></g><g transform="translate(0, 153)"><rect width="8" height="8" stroke="none" fill="none" stroke-width="1.3" transform="translate(0, 0)" rx="2"/></g></g></g></g></svg>