<?xml version="1.0" encoding="UTF-8" standalone="no"?><svg xmlns="http://www.w3.org/2000/svg" xmlns:xlink="http://www.w3.org/1999/xlink" contentScriptType="application/ecmascript" contentStyleType="text/css" height="390px" preserveAspectRatio="none" style="width:618px;height:390px;background:#FFFFFF;" version="1.1" viewBox="0 0 618 390" width="618px" zoomAndPan="magnify"><defs/><g><line style="stroke:#696969;stroke-width:1.0;stroke-dasharray:5.0,5.0;" x1="24" x2="24" y1="84.2969" y2="308.2266"/><line style="stroke:#696969;stroke-width:1.0;stroke-dasharray:5.0,5.0;" x1="130.5" x2="130.5" y1="84.2969" y2="308.2266"/><line style="stroke:#696969;stroke-width:1.0;stroke-dasharray:5.0,5.0;" x1="345.5" x2="345.5" y1="84.2969" y2="308.2266"/><line style="stroke:#696969;stroke-width:1.0;stroke-dasharray:5.0,5.0;" x1="505" x2="505" y1="84.2969" y2="308.2266"/><line style="stroke:#696969;stroke-width:1.0;stroke-dasharray:5.0,5.0;" x1="587" x2="587" y1="84.2969" y2="308.2266"/><text fill="#454645" font-family="sans-serif" font-size="14" lengthAdjust="spacing" textLength="32" x="5" y="80.9951">User</text><ellipse cx="24" cy="15" fill="#454645" rx="8" ry="8" style="stroke:#454645;stroke-width:2.0;"/><path d="M24,23 L24,50 M11,31 L37,31 M24,50 L11,65 M24,50 L37,65 " fill="none" style="stroke:#454645;stroke-width:2.0;"/><text fill="#454645" font-family="sans-serif" font-size="14" lengthAdjust="spacing" textLength="32" x="5" y="320.2217">User</text><ellipse cx="24" cy="333.5234" fill="#454645" rx="8" ry="8" style="stroke:#454645;stroke-width:2.0;"/><path d="M24,341.5234 L24,368.5234 M11,349.5234 L37,349.5234 M24,368.5234 L11,383.5234 M24,368.5234 L37,383.5234 " fill="none" style="stroke:#454645;stroke-width:2.0;"/><text fill="#454645" font-family="sans-serif" font-size="14" lengthAdjust="spacing" textLength="57" x="99.5" y="80.9951">Browser</text><path d="M110.5,40 L110.5,64 M110.5,52 L127.5,52 " fill="none" style="stroke:#454645;stroke-width:2.0;"/><ellipse cx="139.5" cy="52" fill="#FFE552" rx="12" ry="12" style="stroke:#454645;stroke-width:2.0;"/><text fill="#454645" font-family="sans-serif" font-size="14" lengthAdjust="spacing" textLength="57" x="99.5" y="320.2217">Browser</text><path d="M110.5,327.5234 L110.5,351.5234 M110.5,339.5234 L127.5,339.5234 " fill="none" style="stroke:#454645;stroke-width:2.0;"/><ellipse cx="139.5" cy="339.5234" fill="#FFE552" rx="12" ry="12" style="stroke:#454645;stroke-width:2.0;"/><text fill="#454645" font-family="sans-serif" font-size="14" lengthAdjust="spacing" textLength="67" x="309.5" y="80.9951">Controller</text><ellipse cx="346" cy="52" fill="#FFE552" rx="12" ry="12" style="stroke:#454645;stroke-width:2.0;"/><polygon fill="#454645" points="342,40,348,35,346,40,348,45,342,40" style="stroke:#454645;stroke-width:1.0;"/><text fill="#454645" font-family="sans-serif" font-size="14" lengthAdjust="spacing" textLength="67" x="309.5" y="320.2217">Controller</text><ellipse cx="346" cy="339.5234" fill="#FFE552" rx="12" ry="12" style="stroke:#454645;stroke-width:2.0;"/><polygon fill="#454645" points="342,327.5234,348,322.5234,346,327.5234,348,332.5234,342,327.5234" style="stroke:#454645;stroke-width:1.0;"/><text fill="#454645" font-family="sans-serif" font-size="14" lengthAdjust="spacing" textLength="66" x="469" y="80.9951">Database</text><path d="M487,32 C487,22 505,22 505,22 C505,22 523,22 523,32 L523,58 C523,68 505,68 505,68 C505,68 487,68 487,58 L487,32 " fill="#00FFFF" style="stroke:#454645;stroke-width:1.5;"/><path d="M487,32 C487,42 505,42 505,42 C505,42 523,42 523,32 " fill="none" style="stroke:#454645;stroke-width:1.5;"/><text fill="#454645" font-family="sans-serif" font-size="14" lengthAdjust="spacing" textLength="66" x="469" y="320.2217">Database</text><path d="M487,333.5234 C487,323.5234 505,323.5234 505,323.5234 C505,323.5234 523,323.5234 523,333.5234 L523,359.5234 C523,369.5234 505,369.5234 505,369.5234 C505,369.5234 487,369.5234 487,359.5234 L487,333.5234 " fill="#00FFFF" style="stroke:#454645;stroke-width:1.5;"/><path d="M487,333.5234 C487,343.5234 505,343.5234 505,343.5234 C505,343.5234 523,343.5234 523,333.5234 " fill="none" style="stroke:#454645;stroke-width:1.5;"/><rect fill="#FF6347" height="30.2969" rx="3.5" ry="3.5" style="stroke:#FFFFFF;stroke-width:1.5;" width="46" x="566" y="49"/><rect fill="#FF6347" height="30.2969" rx="3.5" ry="3.5" style="stroke:#FFFFFF;stroke-width:1.5;" width="46" x="562" y="53"/><text fill="#FFFFFF" font-family="sans-serif" font-size="14" lengthAdjust="spacing" textLength="32" x="569" y="72.9951">View</text><rect fill="#FF6347" height="30.2969" rx="3.5" ry="3.5" style="stroke:#FFFFFF;stroke-width:1.5;" width="46" x="566" y="307.2266"/><rect fill="#FF6347" height="30.2969" rx="3.5" ry="3.5" style="stroke:#FFFFFF;stroke-width:1.5;" width="46" x="562" y="311.2266"/><text fill="#FFFFFF" font-family="sans-serif" font-size="14" lengthAdjust="spacing" textLength="32" x="569" y="331.2217">View</text><polygon fill="#454645" points="119,111.4297,129,115.4297,119,119.4297,123,115.4297" style="stroke:#454645;stroke-width:1.0;"/><line style="stroke:#454645;stroke-width:1.0;" x1="24" x2="125" y1="115.4297" y2="115.4297"/><text fill="#000000" font-family="sans-serif" font-size="13" lengthAdjust="spacing" textLength="83" x="31" y="110.3638">homepage '/'</text><polygon fill="#454645" points="334,140.5625,344,144.5625,334,148.5625,338,144.5625" style="stroke:#454645;stroke-width:1.0;"/><line style="stroke:#454645;stroke-width:1.0;" x1="131" x2="340" y1="144.5625" y2="144.5625"/><text fill="#000000" font-family="sans-serif" font-size="13" lengthAdjust="spacing" textLength="191" x="138" y="139.4966">GET '/' route, list all messages</text><polygon fill="#454645" points="493,169.6953,503,173.6953,493,177.6953,497,173.6953" style="stroke:#454645;stroke-width:1.0;"/><line style="stroke:#454645;stroke-width:1.0;" x1="346" x2="499" y1="173.6953" y2="173.6953"/><text fill="#000000" font-family="sans-serif" font-size="13" lengthAdjust="spacing" textLength="135" x="353" y="168.6294">SELECT * FROM table</text><polygon fill="#454645" points="357,198.8281,347,202.8281,357,206.8281,353,202.8281" style="stroke:#454645;stroke-width:1.0;"/><line style="stroke:#454645;stroke-width:1.0;" x1="351" x2="504" y1="202.8281" y2="202.8281"/><text fill="#000000" font-family="sans-serif" font-size="13" lengthAdjust="spacing" textLength="84" x="363" y="197.7622">all messages</text><polygon fill="#454645" points="575,227.9609,585,231.9609,575,235.9609,579,231.9609" style="stroke:#454645;stroke-width:1.0;"/><line style="stroke:#454645;stroke-width:1.0;" x1="346" x2="581" y1="231.9609" y2="231.9609"/><text fill="#000000" font-family="sans-serif" font-size="13" lengthAdjust="spacing" textLength="217" x="353" y="226.895">for message in messages, display</text><polygon fill="#454645" points="357,257.0938,347,261.0938,357,265.0938,353,261.0938" style="stroke:#454645;stroke-width:1.0;"/><line style="stroke:#454645;stroke-width:1.0;" x1="351" x2="586" y1="261.0938" y2="261.0938"/><text fill="#000000" font-family="sans-serif" font-size="13" lengthAdjust="spacing" textLength="167" x="363" y="256.0278">HTML rendered messages</text><polygon fill="#454645" points="142,286.2266,132,290.2266,142,294.2266,138,290.2266" style="stroke:#454645;stroke-width:1.0;"/><line style="stroke:#454645;stroke-width:1.0;" x1="136" x2="345" y1="290.2266" y2="290.2266"/><text fill="#000000" font-family="sans-serif" font-size="13" lengthAdjust="spacing" textLength="165" x="148" y="285.1606">can see chitter messages</text><!--MD5=[589d9a9d4c8456fa8b670aede4264206]
@startuml

!theme vibrant

actor User
boundary Browser
control Controller
database Database
collections View

User -> Browser : homepage '/'
Browser -> Controller : GET '/' route, list all messages
Controller -> Database : SELECT * FROM table
Database -> Controller : all messages
Controller -> View : for message in messages, display
View -> Controller : HTML rendered messages
Controller -> Browser : can see chitter messages


@enduml

@startuml

skinparam BackgroundColor FFFFFF
skinparam shadowing false
skinparam RoundCorner 7
skinparam ArrowColor 454645
skinparam FontColor 454645
skinparam SequenceLifeLineBorderColor 696969
skinparam SequenceGroupHeaderFontColor 454645
skinparam SequenceGroupFontColor 696969
skinparam SequenceGroupBorderColor 696969
skinparam SequenceGroupBorderThickness 1

skinparam sequenceDivider {
    BorderColor 454645
    BorderThickness 1
    FontColor 454645
}

skinparam participant {
    BackgroundColor FF6347
    BorderColor FF6F61
    FontColor FFFFFF
}

skinparam database {
    BackgroundColor 00FFFF
    BorderColor 454645
    FontColor 454645
}

skinparam entity {
    BackgroundColor FFE552
    BorderColor 454645
    FontColor 454645
}

skinparam note {
    BackgroundColor 7FFFD4
    BorderColor 7FFFD4
    FontColor 454645
}

skinparam actor {
    BackgroundColor 454645
    BorderColor 454645
    FontColor 454645
}

skinparam boundary {
    BackgroundColor FFE552
    BorderColor 454645
    FontColor 454645
}

skinparam control {
    BackgroundColor FFE552
    BorderColor 454645
    FontColor 454645
}

skinparam collections {
    BackgroundColor FF6347
    BorderColor FFFFFF
    FontColor 454645
}

actor User
boundary Browser
control Controller
database Database
collections View

User -> Browser : homepage '/'
Browser -> Controller : GET '/' route, list all messages
Controller -> Database : SELECT * FROM table
Database -> Controller : all messages
Controller -> View : for message in messages, display
View -> Controller : HTML rendered messages
Controller -> Browser : can see chitter messages


@enduml

PlantUML version 1.2021.9(Sun Jul 25 11:13:56 BST 2021)
(GPL source distribution)
Java Runtime: OpenJDK Runtime Environment
JVM: OpenJDK 64-Bit Server VM
Default Encoding: UTF-8
Language: en
Country: GB
--></g></svg>