<?xml version="1.0" encoding="UTF-8" standalone="no"?><svg xmlns="http://www.w3.org/2000/svg" xmlns:xlink="http://www.w3.org/1999/xlink" contentScriptType="application/ecmascript" contentStyleType="text/css" height="390px" preserveAspectRatio="none" style="width:770px;height:390px;background:#FFFFFF;" version="1.1" viewBox="0 0 770 390" width="770px" zoomAndPan="magnify"><defs/><g><line style="stroke:#696969;stroke-width:1.0;stroke-dasharray:5.0,5.0;" x1="24" x2="24" y1="84.2969" y2="308.2266"/><line style="stroke:#696969;stroke-width:1.0;stroke-dasharray:5.0,5.0;" x1="100.5" x2="100.5" y1="84.2969" y2="308.2266"/><line style="stroke:#696969;stroke-width:1.0;stroke-dasharray:5.0,5.0;" x1="382.5" x2="382.5" y1="84.2969" y2="308.2266"/><line style="stroke:#696969;stroke-width:1.0;stroke-dasharray:5.0,5.0;" x1="668" x2="668" y1="84.2969" y2="308.2266"/><line style="stroke:#696969;stroke-width:1.0;stroke-dasharray:5.0,5.0;" x1="739" x2="739" y1="84.2969" y2="308.2266"/><text fill="#454645" font-family="sans-serif" font-size="14" lengthAdjust="spacing" textLength="32" x="5" y="80.9951">User</text><ellipse cx="24" cy="15" fill="#454645" rx="8" ry="8" style="stroke:#454645;stroke-width:2.0;"/><path d="M24,23 L24,50 M11,31 L37,31 M24,50 L11,65 M24,50 L37,65 " fill="none" style="stroke:#454645;stroke-width:2.0;"/><text fill="#454645" font-family="sans-serif" font-size="14" lengthAdjust="spacing" textLength="32" x="5" y="320.2217">User</text><ellipse cx="24" cy="333.5234" fill="#454645" rx="8" ry="8" style="stroke:#454645;stroke-width:2.0;"/><path d="M24,341.5234 L24,368.5234 M11,349.5234 L37,349.5234 M24,368.5234 L11,383.5234 M24,368.5234 L37,383.5234 " fill="none" style="stroke:#454645;stroke-width:2.0;"/><text fill="#454645" font-family="sans-serif" font-size="14" lengthAdjust="spacing" textLength="57" x="69.5" y="80.9951">Browser</text><path d="M80.5,40 L80.5,64 M80.5,52 L97.5,52 " fill="none" style="stroke:#454645;stroke-width:2.0;"/><ellipse cx="109.5" cy="52" fill="#FFE552" rx="12" ry="12" style="stroke:#454645;stroke-width:2.0;"/><text fill="#454645" font-family="sans-serif" font-size="14" lengthAdjust="spacing" textLength="57" x="69.5" y="320.2217">Browser</text><path d="M80.5,327.5234 L80.5,351.5234 M80.5,339.5234 L97.5,339.5234 " fill="none" style="stroke:#454645;stroke-width:2.0;"/><ellipse cx="109.5" cy="339.5234" fill="#FFE552" rx="12" ry="12" style="stroke:#454645;stroke-width:2.0;"/><text fill="#454645" font-family="sans-serif" font-size="14" lengthAdjust="spacing" textLength="67" x="346.5" y="80.9951">Controller</text><ellipse cx="383" cy="52" fill="#FFE552" rx="12" ry="12" style="stroke:#454645;stroke-width:2.0;"/><polygon fill="#454645" points="379,40,385,35,383,40,385,45,379,40" style="stroke:#454645;stroke-width:1.0;"/><text fill="#454645" font-family="sans-serif" font-size="14" lengthAdjust="spacing" textLength="67" x="346.5" y="320.2217">Controller</text><ellipse cx="383" cy="339.5234" fill="#FFE552" rx="12" ry="12" style="stroke:#454645;stroke-width:2.0;"/><polygon fill="#454645" points="379,327.5234,385,322.5234,383,327.5234,385,332.5234,379,327.5234" style="stroke:#454645;stroke-width:1.0;"/><text fill="#454645" font-family="sans-serif" font-size="14" lengthAdjust="spacing" textLength="66" x="632" y="80.9951">Database</text><path d="M650,32 C650,22 668,22 668,22 C668,22 686,22 686,32 L686,58 C686,68 668,68 668,68 C668,68 650,68 650,58 L650,32 " fill="#00FFFF" style="stroke:#454645;stroke-width:1.5;"/><path d="M650,32 C650,42 668,42 668,42 C668,42 686,42 686,32 " fill="none" style="stroke:#454645;stroke-width:1.5;"/><text fill="#454645" font-family="sans-serif" font-size="14" lengthAdjust="spacing" textLength="66" x="632" y="320.2217">Database</text><path d="M650,333.5234 C650,323.5234 668,323.5234 668,323.5234 C668,323.5234 686,323.5234 686,333.5234 L686,359.5234 C686,369.5234 668,369.5234 668,369.5234 C668,369.5234 650,369.5234 650,359.5234 L650,333.5234 " fill="#00FFFF" style="stroke:#454645;stroke-width:1.5;"/><path d="M650,333.5234 C650,343.5234 668,343.5234 668,343.5234 C668,343.5234 686,343.5234 686,333.5234 " fill="none" style="stroke:#454645;stroke-width:1.5;"/><rect fill="#FF6347" height="30.2969" rx="3.5" ry="3.5" style="stroke:#FFFFFF;stroke-width:1.5;" width="46" x="718" y="49"/><rect fill="#FF6347" height="30.2969" rx="3.5" ry="3.5" style="stroke:#FFFFFF;stroke-width:1.5;" width="46" x="714" y="53"/><text fill="#FFFFFF" font-family="sans-serif" font-size="14" lengthAdjust="spacing" textLength="32" x="721" y="72.9951">View</text><rect fill="#FF6347" height="30.2969" rx="3.5" ry="3.5" style="stroke:#FFFFFF;stroke-width:1.5;" width="46" x="718" y="307.2266"/><rect fill="#FF6347" height="30.2969" rx="3.5" ry="3.5" style="stroke:#FFFFFF;stroke-width:1.5;" width="46" x="714" y="311.2266"/><text fill="#FFFFFF" font-family="sans-serif" font-size="14" lengthAdjust="spacing" textLength="32" x="721" y="331.2217">View</text><polygon fill="#454645" points="89,111.4297,99,115.4297,89,119.4297,93,115.4297" style="stroke:#454645;stroke-width:1.0;"/><line style="stroke:#454645;stroke-width:1.0;" x1="24" x2="95" y1="115.4297" y2="115.4297"/><text fill="#000000" font-family="sans-serif" font-size="13" lengthAdjust="spacing" textLength="53" x="31" y="110.3638">'/search'</text><polygon fill="#454645" points="371,140.5625,381,144.5625,371,148.5625,375,144.5625" style="stroke:#454645;stroke-width:1.0;"/><line style="stroke:#454645;stroke-width:1.0;" x1="101" x2="377" y1="144.5625" y2="144.5625"/><text fill="#000000" font-family="sans-serif" font-size="13" lengthAdjust="spacing" textLength="166" x="108" y="139.4966">GET? '/search' (args in url)</text><polygon fill="#454645" points="656,169.6953,666,173.6953,656,177.6953,660,173.6953" style="stroke:#454645;stroke-width:1.0;"/><line style="stroke:#454645;stroke-width:1.0;" x1="383" x2="662" y1="173.6953" y2="173.6953"/><text fill="#000000" font-family="sans-serif" font-size="13" lengthAdjust="spacing" textLength="205" x="390" y="168.6294">send search param to database</text><polygon fill="#454645" points="394,198.8281,384,202.8281,394,206.8281,390,202.8281" style="stroke:#454645;stroke-width:1.0;"/><line style="stroke:#454645;stroke-width:1.0;" x1="388" x2="667" y1="202.8281" y2="202.8281"/><text fill="#000000" font-family="sans-serif" font-size="13" lengthAdjust="spacing" textLength="261" x="400" y="197.7622">return messages containing search term</text><polygon fill="#454645" points="727,227.9609,737,231.9609,727,235.9609,731,231.9609" style="stroke:#454645;stroke-width:1.0;"/><line style="stroke:#454645;stroke-width:1.0;" x1="383" x2="733" y1="231.9609" y2="231.9609"/><text fill="#000000" font-family="sans-serif" font-size="13" lengthAdjust="spacing" textLength="212" x="390" y="226.895">for message in search messages</text><polygon fill="#454645" points="394,257.0938,384,261.0938,394,265.0938,390,261.0938" style="stroke:#454645;stroke-width:1.0;"/><line style="stroke:#454645;stroke-width:1.0;" x1="388" x2="738" y1="261.0938" y2="261.0938"/><text fill="#000000" font-family="sans-serif" font-size="13" lengthAdjust="spacing" textLength="167" x="400" y="256.0278">HTML rendered messages</text><polygon fill="#454645" points="112,286.2266,102,290.2266,112,294.2266,108,290.2266" style="stroke:#454645;stroke-width:1.0;"/><line style="stroke:#454645;stroke-width:1.0;" x1="106" x2="382" y1="290.2266" y2="290.2266"/><text fill="#000000" font-family="sans-serif" font-size="13" lengthAdjust="spacing" textLength="258" x="118" y="285.1606">can see chitter only searched messages</text><!--MD5=[149f42bcc630d3681601f15829dbb9ac]
@startuml

!theme vibrant

actor User
boundary Browser
control Controller
database Database
collections View

User -> Browser : '/search'
Browser -> Controller : GET? '/search' (args in url)
Controller -> Database : send search param to database
Database -> Controller : return messages containing search term
Controller -> View : for message in search messages
View -> Controller : HTML rendered messages
Controller -> Browser : can see chitter only searched messages


@enduml

@startuml

skinparam BackgroundColor FFFFFF
skinparam shadowing false
skinparam RoundCorner 7
skinparam ArrowColor 454645
skinparam FontColor 454645
skinparam SequenceLifeLineBorderColor 696969
skinparam SequenceGroupHeaderFontColor 454645
skinparam SequenceGroupFontColor 696969
skinparam SequenceGroupBorderColor 696969
skinparam SequenceGroupBorderThickness 1

skinparam sequenceDivider {
    BorderColor 454645
    BorderThickness 1
    FontColor 454645
}

skinparam participant {
    BackgroundColor FF6347
    BorderColor FF6F61
    FontColor FFFFFF
}

skinparam database {
    BackgroundColor 00FFFF
    BorderColor 454645
    FontColor 454645
}

skinparam entity {
    BackgroundColor FFE552
    BorderColor 454645
    FontColor 454645
}

skinparam note {
    BackgroundColor 7FFFD4
    BorderColor 7FFFD4
    FontColor 454645
}

skinparam actor {
    BackgroundColor 454645
    BorderColor 454645
    FontColor 454645
}

skinparam boundary {
    BackgroundColor FFE552
    BorderColor 454645
    FontColor 454645
}

skinparam control {
    BackgroundColor FFE552
    BorderColor 454645
    FontColor 454645
}

skinparam collections {
    BackgroundColor FF6347
    BorderColor FFFFFF
    FontColor 454645
}

actor User
boundary Browser
control Controller
database Database
collections View

User -> Browser : '/search'
Browser -> Controller : GET? '/search' (args in url)
Controller -> Database : send search param to database
Database -> Controller : return messages containing search term
Controller -> View : for message in search messages
View -> Controller : HTML rendered messages
Controller -> Browser : can see chitter only searched messages


@enduml

PlantUML version 1.2021.9(Sun Jul 25 11:13:56 BST 2021)
(GPL source distribution)
Java Runtime: OpenJDK Runtime Environment
JVM: OpenJDK 64-Bit Server VM
Default Encoding: UTF-8
Language: en
Country: GB
--></g></svg>